<svg width="28" height="24" viewBox="0 0 28 24" fill="none" xmlns="http://www.w3.org/2000/svg">
<path d="M8.12211 22.2846C7.53088 22.5054 6.88874 22.5521 6.27179 22.4191C5.65484 22.2862 5.08893 21.9791 4.64114 21.5344C4.33254 21.2296 4.08797 20.8661 3.92178 20.4655C3.75559 20.0648 3.67113 19.635 3.67337 19.2012C3.67658 18.8963 3.72203 18.5934 3.8084 18.301C3.48311 17.6928 3.23127 17.0481 3.05819 16.3804C2.36875 17.3314 2.0518 18.5021 2.16734 19.671C2.28287 20.8398 2.82286 21.9258 3.68513 22.7234C4.5474 23.521 5.67212 23.9748 6.84645 23.999C8.02078 24.0232 9.16325 23.6161 10.0577 22.8548C9.39255 22.7404 8.743 22.5491 8.12211 22.2846ZM14.3113 19.2612C13.2274 19.8654 11.9762 20.0999 10.7471 19.9294C9.51797 19.7588 8.37788 19.1924 7.49944 18.316C6.62193 17.4415 6.05401 16.3043 5.88203 15.0775C5.71005 13.8506 5.94343 12.6011 6.54667 11.5191C6.38258 10.8175 6.28958 10.1012 6.26909 9.38098C4.99252 10.7429 4.29594 12.5481 4.32674 14.4145C4.35755 16.281 5.11332 18.0622 6.43414 19.3813C7.75853 20.6979 9.54131 21.4505 11.4085 21.4813C13.2758 21.5121 15.0824 20.8186 16.4494 19.5463C15.7291 19.5224 15.0128 19.4269 14.3113 19.2612Z" fill="#212121" fill-opacity="0.6"/>
<path d="M16.7495 18.1584C14.6497 18.1552 12.616 17.4243 10.9947 16.09C9.3734 14.7558 8.26479 12.9007 7.85769 10.8408C7.45059 8.78091 7.77018 6.64358 8.76204 4.79287C9.75389 2.94216 11.3567 1.49253 13.2974 0.690893C15.238 -0.110746 17.3966 -0.214813 19.4054 0.396417C21.4142 1.00765 23.149 2.29637 24.3143 4.04308C25.4796 5.78979 26.0033 7.88646 25.7963 9.97597C25.5892 12.0655 24.6642 14.0186 23.1788 15.5026C22.3343 16.3463 21.3318 17.0151 20.2286 17.4708C19.1254 17.9265 17.9431 18.1601 16.7495 18.1584ZM16.7495 1.49621C15.7528 1.49522 14.7657 1.69068 13.8447 2.0714C12.9236 2.45212 12.0866 3.01064 11.3815 3.71504C10.6764 4.41943 10.117 5.25589 9.73541 6.17659C9.35378 7.09728 9.15735 8.08417 9.15735 9.08083C9.15749 10.0785 9.35661 11.0661 9.74306 11.9858C10.1295 12.9056 10.6955 13.739 11.408 14.4373C12.8317 15.8607 14.7625 16.6603 16.7757 16.6603C18.7889 16.6603 20.7197 15.8607 22.1435 14.4373C23.2038 13.3744 23.9248 12.0207 24.2152 10.5477C24.5055 9.07464 24.3522 7.54857 23.7746 6.16276C23.197 4.77695 22.221 3.59375 20.9704 2.76302C19.7198 1.93229 18.2508 1.4914 16.7495 1.49621Z" fill="#212121" fill-opacity="0.6"/>
</svg>
