<svg width="28" height="24" viewBox="0 0 28 24" fill="none" xmlns="http://www.w3.org/2000/svg">
<path d="M8.12193 22.2846C7.5307 22.5054 6.88856 22.5521 6.27161 22.4191C5.65465 22.2862 5.08875 21.9791 4.64095 21.5344C4.33236 21.2296 4.08779 20.8661 3.92159 20.4655C3.7554 20.0648 3.67095 19.635 3.67318 19.2012C3.6764 18.8963 3.72185 18.5934 3.80822 18.301C3.48293 17.6928 3.23109 17.0481 3.05801 16.3804C2.36857 17.3314 2.05162 18.5021 2.16715 19.671C2.28269 20.8398 2.82268 21.9258 3.68495 22.7234C4.54722 23.521 5.67194 23.9748 6.84627 23.999C8.0206 24.0232 9.16307 23.6161 10.0575 22.8548C9.39236 22.7404 8.74282 22.5491 8.12193 22.2846ZM14.3112 19.2612C13.2273 19.8654 11.976 20.0999 10.7469 19.9294C9.51778 19.7588 8.3777 19.1924 7.49925 18.316C6.62175 17.4415 6.05383 16.3043 5.88185 15.0775C5.70987 13.8506 5.94325 12.6011 6.54649 11.5191C6.3824 10.8175 6.2894 10.1012 6.26891 9.38098C4.99234 10.7429 4.29576 12.5481 4.32656 14.4145C4.35736 16.281 5.11314 18.0622 6.43395 19.3813C7.75835 20.6979 9.54113 21.4505 11.4084 21.4813C13.2756 21.5121 15.0822 20.8186 16.4493 19.5463C15.7289 19.5224 15.0127 19.4269 14.3112 19.2612Z" fill="#212121"/>
<path d="M16.7494 18.1584C14.6496 18.1552 12.6159 17.4243 10.9946 16.09C9.37328 14.7558 8.26466 12.9007 7.85756 10.8408C7.45046 8.78091 7.77006 6.64358 8.76192 4.79287C9.75377 2.94216 11.3565 1.49253 13.2972 0.690893C15.2379 -0.110746 17.3965 -0.214813 19.4053 0.396417C21.4141 1.00765 23.1489 2.29637 24.3142 4.04308C25.4795 5.78979 26.0032 7.88646 25.7962 9.97597C25.5891 12.0655 24.6641 14.0186 23.1786 15.5026C22.3342 16.3463 21.3317 17.0151 20.2285 17.4708C19.1253 17.9265 17.943 18.1601 16.7494 18.1584ZM16.7494 1.49621C15.7527 1.49522 14.7656 1.69068 13.8445 2.0714C12.9235 2.45212 12.0865 3.01064 11.3814 3.71504C10.6763 4.41943 10.1169 5.25589 9.73529 6.17659C9.35366 7.09728 9.15723 8.08417 9.15723 9.08083C9.15737 10.0785 9.35649 11.0661 9.74294 11.9858C10.1294 12.9056 10.6954 13.739 11.4079 14.4373C12.8316 15.8607 14.7624 16.6603 16.7756 16.6603C18.7888 16.6603 20.7196 15.8607 22.1434 14.4373C23.2037 13.3744 23.9247 12.0207 24.2151 10.5477C24.5054 9.07464 24.3521 7.54857 23.7745 6.16276C23.1968 4.77695 22.2209 3.59375 20.9703 2.76302C19.7197 1.93229 18.2507 1.4914 16.7494 1.49621Z" fill="#212121"/>
</svg>
