<svg width="16" height="22" viewBox="0 0 16 22" fill="none" xmlns="http://www.w3.org/2000/svg">
<path fill-rule="evenodd" clip-rule="evenodd" d="M15.9995 11.5991V16.5991C15.9995 17.3948 15.6834 18.1579 15.1208 18.7205C14.5582 19.2831 13.7952 19.5991 12.9995 19.5991H2.99952C2.20387 19.5991 1.4408 19.2831 0.878196 18.7205C0.315587 18.1579 -0.000483855 17.3948 -0.000483855 16.5991V11.5991H15.9995ZM7.99952 0.599141C9.32952 0.599141 10.5835 0.923141 11.6865 1.49814L12.2925 0.892141C12.3848 0.796631 12.4951 0.720449 12.6171 0.66804C12.7391 0.615631 12.8703 0.588045 13.0031 0.586891C13.1359 0.585737 13.2676 0.611039 13.3905 0.66132C13.5134 0.7116 13.625 0.785854 13.7189 0.879746C13.8128 0.973639 13.8871 1.08529 13.9373 1.20819C13.9876 1.33108 14.0129 1.46276 14.0118 1.59554C14.0106 1.72832 13.983 1.85954 13.9306 1.98155C13.8782 2.10355 13.802 2.21389 13.7065 2.30614L13.3565 2.65614C14.1897 3.40563 14.8556 4.32219 15.311 5.34615C15.7664 6.3701 16.001 7.47849 15.9995 8.59914V9.59914H-0.000483855V8.59914C-0.00166407 7.47859 0.233164 6.37034 0.688713 5.34656C1.14426 4.32279 1.81032 3.40642 2.64352 2.65714L2.29252 2.30714C2.10488 2.11963 1.99941 1.86527 1.99931 1.59999C1.99922 1.33472 2.10451 1.08028 2.29202 0.892641C2.47952 0.705 2.73389 0.599533 2.99916 0.599439C3.26443 0.599345 3.51888 0.704633 3.70652 0.892141L4.31252 1.49814C5.45162 0.907088 6.7162 0.598746 7.99952 0.599141ZM4.99952 4.59914C4.7343 4.59914 4.47995 4.7045 4.29241 4.89203C4.10487 5.07957 3.99952 5.33392 3.99952 5.59914C3.99952 5.86436 4.10487 6.11871 4.29241 6.30625C4.47995 6.49378 4.7343 6.59914 4.99952 6.59914C5.26473 6.59914 5.51909 6.49378 5.70662 6.30625C5.89416 6.11871 5.99952 5.86436 5.99952 5.59914C5.99952 5.33392 5.89416 5.07957 5.70662 4.89203C5.51909 4.7045 5.26473 4.59914 4.99952 4.59914ZM10.9995 4.59914C10.7343 4.59914 10.4799 4.7045 10.2924 4.89203C10.1049 5.07957 9.99952 5.33392 9.99952 5.59914C9.99952 5.86436 10.1049 6.11871 10.2924 6.30625C10.4799 6.49378 10.7343 6.59914 10.9995 6.59914C11.2647 6.59914 11.5191 6.49378 11.7066 6.30625C11.8942 6.11871 11.9995 5.86436 11.9995 5.59914C11.9995 5.33392 11.8942 5.07957 11.7066 4.89203C11.5191 4.7045 11.2647 4.59914 10.9995 4.59914Z" fill="#212121"/>
</svg>
