<svg width="28" height="24" viewBox="0 0 28 24" fill="none" xmlns="http://www.w3.org/2000/svg">
<path d="M18.4871 6.70852C18.4871 7.00218 18.429 7.29296 18.316 7.56427C18.203 7.83557 18.0374 8.08209 17.8286 8.28973C17.6199 8.49738 17.372 8.6621 17.0992 8.77447C16.8265 8.88685 16.5341 8.94469 16.2389 8.94469C15.9436 8.94469 15.6513 8.88685 15.3785 8.77447C15.1057 8.6621 14.8579 8.49738 14.6491 8.28973C14.4403 8.08209 14.2747 7.83557 14.1617 7.56427C14.0487 7.29296 13.9906 7.00218 13.9906 6.70852C13.9906 6.11545 14.2275 5.54667 14.6491 5.12731C15.0707 4.70794 15.6426 4.47235 16.2389 4.47235C16.8351 4.47235 17.407 4.70794 17.8286 5.12731C18.2503 5.54667 18.4871 6.11545 18.4871 6.70852ZM16.9883 6.70852C16.9883 6.51083 16.9093 6.32124 16.7688 6.18145C16.6282 6.04166 16.4376 5.96313 16.2389 5.96313C16.0401 5.96313 15.8495 6.04166 15.7089 6.18145C15.5684 6.32124 15.4894 6.51083 15.4894 6.70852C15.4894 6.90621 15.5684 7.0958 15.7089 7.23559C15.8495 7.37538 16.0401 7.45391 16.2389 7.45391C16.4376 7.45391 16.6282 7.37538 16.7688 7.23559C16.9093 7.0958 16.9883 6.90621 16.9883 6.70852ZM1.99976 4.47235C1.99976 3.28621 2.4735 2.14865 3.31677 1.30992C4.16004 0.471192 5.30375 0 6.49632 0H18.4871C19.6797 0 20.8234 0.471192 21.6667 1.30992C22.51 2.14865 22.9837 3.28621 22.9837 4.47235V8.94917C22.4726 8.97302 21.9645 9.08632 21.4848 9.29056V4.47235C21.4848 3.68159 21.169 2.92321 20.6068 2.36406C20.0447 1.80491 19.2822 1.49078 18.4871 1.49078H6.49632C5.70127 1.49078 4.9388 1.80491 4.37662 2.36406C3.81444 2.92321 3.49861 3.68159 3.49861 4.47235V17.63C3.49885 17.6886 3.51646 17.7458 3.54923 17.7946C3.582 17.8433 3.62847 17.8813 3.68285 17.9039C3.73723 17.9265 3.79709 17.9326 3.85496 17.9216C3.91283 17.9105 3.96614 17.8827 4.00822 17.8417L5.21779 16.655L5.2148 16.6505L6.78559 15.115L7.09436 14.8139L10.9164 11.0795C11.3368 10.6689 11.9025 10.4388 12.4917 10.4388C13.0809 10.4388 13.6466 10.6689 14.067 11.0795L16.6825 13.6347L15.6228 14.6902L13.0163 12.1424C12.8762 12.0058 12.6879 11.9293 12.4917 11.9293C12.2956 11.9293 12.1072 12.0058 11.9671 12.1424L7.83629 16.178L5.06191 18.9031C3.92578 20.0182 1.99976 19.2162 1.99976 17.63V4.47235ZM2.5993 20.9231C3.15237 21.1974 3.84335 21.4225 4.4234 21.2958C4.79961 21.2123 5.28824 21.0081 5.83682 20.7785C7.1633 20.2225 8.83902 19.5218 10.1265 20.0376C11.0813 20.4192 11.0019 21.5001 10.7336 22.0203C10.6811 22.1187 10.7216 22.2589 10.831 22.2842C11.3792 22.395 11.9389 22.4391 12.4977 22.4154C12.5042 22.3451 12.5158 22.2754 12.5322 22.2067L13.0943 19.9735C13.2394 19.398 13.5389 18.8725 13.9606 18.4529L21.2001 11.2524C21.4596 10.9903 21.7688 10.7819 22.1098 10.6392C22.4507 10.4965 22.8167 10.4223 23.1866 10.421C23.5565 10.4196 23.923 10.4911 24.265 10.6313C24.607 10.7715 24.9177 10.9776 25.1792 11.2378C25.4407 11.498 25.6478 11.8072 25.7887 12.1474C25.9295 12.4876 26.0012 12.8521 25.9997 13.22C25.9982 13.5879 25.9235 13.9519 25.7799 14.291C25.6363 14.63 25.4267 14.9375 25.163 15.1955L17.9236 22.3945C17.5017 22.814 16.9733 23.1118 16.3947 23.2562L14.5631 23.7109C12.8829 24.1999 10.3753 24.0418 9.59744 23.4381C8.92446 22.9163 8.89748 22.1158 9.1238 21.5835C9.17477 21.4643 9.08483 21.3107 8.95743 21.3301C8.2155 21.4345 7.60846 21.7028 7.00892 21.9667C6.13209 22.3543 5.27625 22.7314 4.04719 22.5794C2.9815 22.4482 2.38796 21.8951 2.06121 21.3495C1.87835 21.0454 2.28004 20.7651 2.5993 20.9231Z" fill="#212121"/>
</svg>
