<svg width="22" height="18" viewBox="0 0 22 18" fill="none" xmlns="http://www.w3.org/2000/svg">
<path d="M8.49951 12V13.5C8.49951 14.4283 8.13076 15.3185 7.47439 15.9749C6.81801 16.6313 5.92777 17 4.99951 17C4.07125 17 3.18102 16.6313 2.52464 15.9749C1.86826 15.3185 1.49951 14.4283 1.49951 13.5V6.5M13.4995 12V13.5C13.4995 14.4283 13.8683 15.3185 14.5246 15.9749C15.181 16.6313 16.0713 17 16.9995 17C17.9278 17 18.818 16.6313 19.4744 15.9749C20.1308 15.3185 20.4995 14.4283 20.4995 13.5V6.5" stroke="black" stroke-width="2" stroke-linecap="round" stroke-linejoin="round"/>
<path d="M14.9995 1H6.99951C3.96195 1 1.49951 3.46243 1.49951 6.5C1.49951 9.53757 3.96195 12 6.99951 12H14.9995C18.0371 12 20.4995 9.53757 20.4995 6.5C20.4995 3.46243 18.0371 1 14.9995 1Z" stroke="black" stroke-width="2"/>
<path d="M9.49951 6.5H5.49951M7.49951 4.5V8.5" stroke="black" stroke-width="2" stroke-linecap="round" stroke-linejoin="round"/>
<path d="M16.9995 5.5C16.9995 4.94772 16.5518 4.5 15.9995 4.5C15.4472 4.5 14.9995 4.94772 14.9995 5.5C14.9995 6.05228 15.4472 6.5 15.9995 6.5C16.5518 6.5 16.9995 6.05228 16.9995 5.5Z" fill="black"/>
<path d="M14.9995 8C14.9995 7.44772 14.5518 7 13.9995 7C13.4472 7 12.9995 7.44772 12.9995 8C12.9995 8.55228 13.4472 9 13.9995 9C14.5518 9 14.9995 8.55228 14.9995 8Z" fill="black"/>
</svg>
