<svg width="52" height="44" viewBox="0 0 52 44" fill="none" xmlns="http://www.w3.org/2000/svg">
<path d="M17.6973 37.2837C16.7612 37.6334 15.7444 37.7073 14.7675 37.4967C13.7906 37.2862 12.8946 36.8 12.1855 36.0958C11.6969 35.6132 11.3096 35.0377 11.0465 34.4033C10.7833 33.7689 10.6496 33.0883 10.6531 32.4015C10.6582 31.9187 10.7302 31.439 10.8669 30.976C10.3519 30.013 9.9531 28.9922 9.67905 27.935C8.58737 29.4407 8.08551 31.2944 8.26845 33.1453C8.45139 34.9961 9.30642 36.7157 10.6718 37.9785C12.0371 39.2414 13.818 39.96 15.6774 39.9984C17.5369 40.0367 19.3459 39.3921 20.7621 38.1865C19.709 38.0054 18.6805 37.7025 17.6973 37.2837ZM27.4975 32.4965C25.7812 33.4531 23.8 33.8245 21.8538 33.5544C19.9076 33.2844 18.1023 32.3876 16.7114 30.9998C15.3219 29.6151 14.4227 27.8145 14.1504 25.8719C13.878 23.9292 14.2476 21.9508 15.2028 20.2374C14.9429 19.1266 14.7957 17.9923 14.7632 16.8519C12.7419 19.0085 11.6389 21.8668 11.6877 24.8222C11.7365 27.7775 12.9332 30.5979 15.0246 32.6866C17.1216 34.7713 19.9445 35.963 22.9011 36.0118C25.8577 36.0605 28.7183 34.9624 30.883 32.9479C29.7423 32.91 28.6082 32.7588 27.4975 32.4965Z" fill="white"/>
<path d="M31.358 30.7503C28.0333 30.7454 24.813 29.588 22.2458 27.4753C19.6786 25.3626 17.9232 22.4252 17.2786 19.1635C16.634 15.9019 17.1401 12.5176 18.7106 9.58716C20.2811 6.65671 22.819 4.36135 25.8919 3.09202C28.9648 1.82269 32.3827 1.65791 35.5635 2.62574C38.7443 3.59357 41.4912 5.63415 43.3363 8.39992C45.1815 11.1657 46.0107 14.4856 45.6829 17.7941C45.355 21.1027 43.8903 24.1953 41.5383 26.5452C40.2012 27.881 38.6138 28.94 36.8669 29.6616C35.1201 30.3831 33.248 30.7531 31.358 30.7503ZM31.358 4.36716C29.7799 4.3656 28.2169 4.67509 26.7585 5.27793C25.3 5.88077 23.9747 6.76514 22.8583 7.88049C21.7418 8.99585 20.8561 10.3203 20.2518 11.7781C19.6476 13.236 19.3365 14.7987 19.3365 16.3768C19.3368 17.9564 19.652 19.5202 20.264 20.9766C20.8759 22.4329 21.7721 23.7526 22.9002 24.8583C25.1546 27.1121 28.2118 28.3783 31.3996 28.3783C34.5874 28.3783 37.6446 27.1121 39.899 24.8583C41.5779 23.1753 42.7196 21.0318 43.1793 18.6994C43.6391 16.367 43.3963 13.9506 42.4817 11.7563C41.5671 9.56195 40.0218 7.68845 38.0416 6.37305C36.0614 5.05766 33.7353 4.35955 31.358 4.36716Z" fill="white"/>
</svg>
