<svg width="52" height="44" viewBox="0 0 52 44" fill="none" xmlns="http://www.w3.org/2000/svg">
<path d="M9.87508 42C8.77043 42 7.84882 41.6286 7.11025 40.8858C6.37168 40.1429 6.0016 39.2152 6 38.1026V31.4268C6 30.3158 6.37008 29.3889 7.11025 28.6461C7.85041 27.9032 8.77203 27.531 9.87508 27.5294H33.5764V19.0882C33.5764 18.7458 33.6907 18.4588 33.9193 18.2272C34.1479 17.9957 34.4332 17.8807 34.7754 17.8824C35.1175 17.884 35.4028 17.9989 35.6314 18.2272C35.86 18.4555 35.9743 18.7425 35.9743 19.0882V27.5294H40.4945C41.5975 27.5294 42.5183 27.9016 43.2569 28.6461C43.9955 29.3905 44.3655 30.3174 44.3671 31.4268V38.105C44.3671 39.2144 43.9971 40.1413 43.2569 40.8858C42.5167 41.6302 41.5959 42.0016 40.4945 42H9.87508ZM9.87508 39.5882H40.4945C40.9245 39.5882 41.2778 39.4492 41.5543 39.171C41.8309 38.8928 41.9692 38.5375 41.9692 38.105V31.4244C41.9692 30.9919 41.8309 30.6366 41.5543 30.3584C41.2778 30.0803 40.9245 29.9412 40.4945 29.9412H9.87268C9.44265 29.9412 9.08935 30.0803 8.81279 30.3584C8.53623 30.6366 8.39795 30.9927 8.39795 31.4268V38.105C8.39795 38.5375 8.53623 38.8928 8.81279 39.171C9.08935 39.4492 9.44345 39.5882 9.87508 39.5882ZM13.1938 36.6218C13.7198 36.6218 14.1586 36.4441 14.5103 36.0888C14.862 35.7334 15.0379 35.2921 15.0379 34.7647C15.0379 34.2373 14.862 33.796 14.5103 33.4406C14.1586 33.0853 13.7198 32.9085 13.1938 32.9101C12.6679 32.9117 12.2291 33.0885 11.8774 33.4406C11.5257 33.7928 11.3498 34.2341 11.3498 34.7647C11.3498 35.2953 11.5257 35.7366 11.8774 36.0888C12.2291 36.4409 12.6679 36.6177 13.1938 36.6193M21.5867 36.6193C22.1126 36.6193 22.5514 36.4425 22.9031 36.0888C23.2548 35.735 23.4307 35.2937 23.4307 34.7647C23.4307 34.2357 23.2548 33.7944 22.9031 33.4406C22.5514 33.0869 22.1126 32.9101 21.5867 32.9101C21.0607 32.9101 20.6219 33.0869 20.2702 33.4406C19.9185 33.7944 19.7426 34.2357 19.7426 34.7647C19.7426 35.2937 19.9185 35.735 20.2702 36.0888C20.6219 36.4425 21.0607 36.6193 21.5867 36.6193ZM29.9795 36.6193C30.5054 36.6193 30.9442 36.4425 31.2959 36.0888C31.6476 35.735 31.8235 35.2937 31.8235 34.7647C31.8235 34.2357 31.6476 33.7944 31.2959 33.4406C30.9442 33.0869 30.5054 32.9101 29.9795 32.9101C29.4535 32.9101 29.0147 33.0869 28.663 33.4406C28.3113 33.7944 28.1354 34.2357 28.1354 34.7647C28.1354 35.2937 28.3113 35.735 28.663 36.0888C29.0147 36.4425 29.4535 36.6193 29.9795 36.6193ZM34.7754 11.8529C33.9664 11.8529 33.2287 11.9703 32.5621 12.2051C31.8954 12.4398 31.2744 12.7927 30.6988 13.2638C30.3983 13.4519 30.0866 13.5484 29.7636 13.5532C29.4407 13.5581 29.1482 13.4294 28.886 13.1674C28.6238 12.9053 28.5015 12.6078 28.5191 12.275C28.5367 11.9422 28.6886 11.6793 28.9747 11.4864C29.8748 10.7789 30.7996 10.2612 31.7491 9.93318C32.6955 9.60518 33.7043 9.44118 34.7754 9.44118C35.8544 9.44118 36.8664 9.60518 37.8112 9.93318C38.7543 10.2612 39.676 10.7789 40.576 11.4864C40.8589 11.6841 41.0108 11.947 41.0316 12.275C41.0524 12.603 40.9301 12.9005 40.6647 13.1674C40.3993 13.431 40.1036 13.5597 39.7775 13.5532C39.4529 13.5484 39.1396 13.4519 38.8375 13.2638C38.2716 12.7927 37.6529 12.4398 36.9815 12.2051C36.31 11.9703 35.5747 11.8529 34.7754 11.8529ZM34.7754 3.41177C32.6939 3.41177 30.8052 3.7663 29.109 4.47536C27.4145 5.18602 25.9365 6.09124 24.6752 7.191C24.3922 7.40806 24.0901 7.51981 23.7688 7.52624C23.4475 7.53267 23.1597 7.40726 22.9055 7.15C22.6417 6.88471 22.525 6.59289 22.5554 6.27453C22.5858 5.95618 22.7377 5.6732 23.011 5.42559C24.6193 4.04606 26.4153 2.96398 28.3992 2.17936C30.3831 1.39473 32.5085 1.00161 34.7754 1C37.0422 0.998397 39.1684 1.39151 41.1539 2.17936C43.1362 2.96398 44.9315 4.04606 46.5397 5.42559C46.813 5.6732 46.9649 5.95618 46.9953 6.27453C47.0257 6.59289 46.909 6.88471 46.6452 7.15C46.3894 7.40726 46.1017 7.53267 45.7819 7.52624C45.4622 7.51981 45.1601 7.40806 44.8755 7.191C43.6142 6.09124 42.1355 5.18602 40.4393 4.47536C38.7432 3.76469 36.8552 3.41016 34.7754 3.41177Z" fill="white"/>
</svg>
