<svg width="52" height="44" viewBox="0 0 52 44" fill="none" xmlns="http://www.w3.org/2000/svg">
<path d="M34.479 12.1809C34.479 12.6703 34.382 13.1549 34.1937 13.6071C34.0054 14.0593 33.7294 14.4701 33.3815 14.8162C33.0335 15.1623 32.6204 15.4368 32.1658 15.6241C31.7112 15.8114 31.2239 15.9078 30.7318 15.9078C30.2398 15.9078 29.7525 15.8114 29.2979 15.6241C28.8433 15.4368 28.4302 15.1623 28.0822 14.8162C27.7343 14.4701 27.4583 14.0593 27.2699 13.6071C27.0816 13.1549 26.9847 12.6703 26.9847 12.1809C26.9847 11.1924 27.3795 10.2444 28.0822 9.54551C28.7849 8.84657 29.738 8.45391 30.7318 8.45391C31.7256 8.45391 32.6787 8.84657 33.3815 9.54551C34.0842 10.2444 34.479 11.1924 34.479 12.1809ZM31.9809 12.1809C31.9809 11.8514 31.8493 11.5354 31.615 11.3024C31.3808 11.0694 31.0631 10.9385 30.7318 10.9385C30.4006 10.9385 30.0829 11.0694 29.8486 11.3024C29.6144 11.5354 29.4828 11.8514 29.4828 12.1809C29.4828 12.5103 29.6144 12.8263 29.8486 13.0593C30.0829 13.2923 30.4006 13.4232 30.7318 13.4232C31.0631 13.4232 31.3808 13.2923 31.615 13.0593C31.8493 12.8263 31.9809 12.5103 31.9809 12.1809ZM7 8.45391C7 6.47701 7.78957 4.58108 9.19502 3.1832C10.6005 1.78532 12.5067 1 14.4943 1H34.479C36.4666 1 38.3728 1.78532 39.7782 3.1832C41.1837 4.58108 41.9732 6.47701 41.9732 8.45391V15.9153C41.1214 15.955 40.2745 16.1439 39.4751 16.4843V8.45391C39.4751 7.13598 38.9488 5.87202 38.0118 4.9401C37.0748 4.00818 35.804 3.48464 34.479 3.48464H14.4943C13.1692 3.48464 11.8984 4.00818 10.9614 4.9401C10.0245 5.87202 9.49809 7.13598 9.49809 8.45391V30.3833C9.49849 30.481 9.52784 30.5764 9.58245 30.6576C9.63707 30.7388 9.71453 30.8022 9.80516 30.8398C9.89578 30.8775 9.99556 30.8877 10.092 30.8693C10.1885 30.8508 10.2773 30.8045 10.3474 30.7361L12.3634 28.7584L12.3584 28.7509L14.9764 26.1917L15.491 25.6898L21.8611 19.4658C22.5618 18.7814 23.5046 18.398 24.4866 18.398C25.4687 18.398 26.4114 18.7814 27.1121 19.4658L31.4713 23.7245L29.7051 25.4836L25.361 21.2374C25.1275 21.0097 24.8136 20.8822 24.4866 20.8822C24.1597 20.8822 23.8458 21.0097 23.6123 21.2374L16.7276 27.9633L12.1036 32.5052C10.21 34.3637 7 33.027 7 30.3833V8.45391ZM7.99924 35.8719C8.92103 36.329 10.0726 36.7042 11.0394 36.493C11.6664 36.3539 12.4808 36.0135 13.3951 35.6309C15.6059 34.7041 18.3988 33.5363 20.5446 34.396C22.1359 35.0321 22.0035 36.8334 21.5564 37.7006C21.4689 37.8646 21.5364 38.0981 21.7187 38.1404C22.6323 38.325 23.5652 38.3985 24.4966 38.359C24.5075 38.2418 24.5267 38.1256 24.5541 38.0112L25.4909 34.2892C25.7328 33.33 26.2318 32.4542 26.9347 31.7548L39.0005 19.754C39.4331 19.3172 39.9484 18.9698 40.5167 18.732C41.0849 18.4942 41.6949 18.3705 42.3114 18.3683C42.9279 18.366 43.5387 18.4852 44.1087 18.7188C44.6787 18.9525 45.1965 19.2961 45.6324 19.7297C46.0682 20.1634 46.4135 20.6786 46.6482 21.2456C46.8829 21.8126 47.0025 22.4202 47 23.0334C46.9975 23.6466 46.8729 24.2532 46.6336 24.8183C46.3943 25.3834 46.0448 25.8958 45.6055 26.3259L33.5397 38.3242C32.8366 39.0233 31.956 39.5197 30.9916 39.7603L27.939 40.5182C25.1386 41.3331 20.9593 41.0697 19.6628 40.0635C18.5412 39.1938 18.4962 37.8596 18.8734 36.9726C18.9583 36.7738 18.8085 36.5179 18.5961 36.5502C17.3596 36.7241 16.3478 37.1713 15.3486 37.6111C13.8872 38.2571 12.4608 38.8857 10.4124 38.6323C8.63625 38.4137 7.647 37.4919 7.10242 36.5825C6.79765 36.0756 7.46714 35.6085 7.99924 35.8719Z" fill="white"/>
</svg>
