<svg width="38" height="20" viewBox="0 0 38 20" fill="none" xmlns="http://www.w3.org/2000/svg">
<path d="M30 5.16123e-06C31.4822 -0.00150219 32.9462 0.327177 34.2856 0.962167C35.6249 1.59716 36.806 2.52251 37.743 3.67101L31.414 10L37.743 16.329C36.806 17.4775 35.6249 18.4029 34.2856 19.0378C32.9462 19.6728 31.4822 20.0015 30 20C24.477 20 20 15.523 20 10C20 4.47701 24.477 5.16123e-06 30 5.16123e-06ZM30 2.00001C28.7379 2.00023 27.4938 2.29905 26.3693 2.87205C25.2448 3.44505 24.2718 4.27596 23.5299 5.29691C22.7879 6.31786 22.298 7.49986 22.1003 8.74634C21.9025 9.99282 22.0024 11.2684 22.3919 12.4689C22.7814 13.6693 23.4494 14.7606 24.3413 15.6536C25.2332 16.5465 26.3237 17.2158 27.5237 17.6066C28.7237 17.9975 29.9992 18.0989 31.2459 17.9026C32.4926 17.7063 33.6752 17.2178 34.697 16.477L34.905 16.32L28.585 10L34.905 3.67901L34.697 3.52301C33.4156 2.59195 31.8859 2.06382 30.303 2.00601L30 2.00001ZM30 3.00001C30.3978 3.00001 30.7794 3.15804 31.0607 3.43934C31.342 3.72065 31.5 4.10218 31.5 4.50001C31.5 4.89783 31.342 5.27936 31.0607 5.56067C30.7794 5.84197 30.3978 6.00001 30 6.00001C29.6022 6.00001 29.2206 5.84197 28.9393 5.56067C28.658 5.27936 28.5 4.89783 28.5 4.50001C28.5 4.10218 28.658 3.72065 28.9393 3.43934C29.2206 3.15804 29.6022 3.00001 30 3.00001Z" fill="#212121"/>
<path d="M9 3C8.73478 3 8.48043 3.10536 8.29289 3.29289C8.10536 3.48043 8 3.73478 8 4C8 4.26522 8.10536 4.51957 8.29289 4.70711C8.48043 4.89464 8.73478 5 9 5H17C17.2652 5 17.5196 4.89464 17.7071 4.70711C17.8946 4.51957 18 4.26522 18 4C18 3.73478 17.8946 3.48043 17.7071 3.29289C17.5196 3.10536 17.2652 3 17 3H9ZM4 10C4 9.73478 4.10536 9.48043 4.29289 9.29289C4.48043 9.10536 4.73478 9 5 9H13C13.2652 9 13.5196 9.10536 13.7071 9.29289C13.8946 9.48043 14 9.73478 14 10C14 10.2652 13.8946 10.5196 13.7071 10.7071C13.5196 10.8946 13.2652 11 13 11H5C4.73478 11 4.48043 10.8946 4.29289 10.7071C4.10536 10.5196 4 10.2652 4 10ZM0 16C0 15.7348 0.105357 15.4804 0.292893 15.2929C0.48043 15.1054 0.734784 15 1 15H9C9.26522 15 9.51957 15.1054 9.70711 15.2929C9.89464 15.4804 10 15.7348 10 16C10 16.2652 9.89464 16.5196 9.70711 16.7071C9.51957 16.8946 9.26522 17 9 17H1C0.734784 17 0.48043 16.8946 0.292893 16.7071C0.105357 16.5196 0 16.2652 0 16Z" fill="#212121"/>
</svg>
