<svg width="26" height="28" viewBox="0 0 26 28" fill="none" xmlns="http://www.w3.org/2000/svg">
<path d="M17.0625 0L26 4.85278V15.675L24.375 14.7927V6.82422L17.875 10.3535V13.9104L16.25 14.7927V10.3535L9.75 6.82422V9.95372L8.125 9.07139V4.85278L17.0625 0ZM17.0625 8.82324L19.3096 7.59626L13.4316 3.94289L10.7529 5.40423L17.0625 8.82324ZM21.0615 6.65879L23.3721 5.40423L17.0625 1.97144L15.1709 3.00542L21.0615 6.65879ZM14.625 15.675L13 16.5574V16.5436L8.125 19.1905V25.4633L13 22.8026V24.7878L7.3125 27.8759L0 23.8917V14.5721L7.3125 10.6017L14.625 14.5721V15.675ZM6.5 25.4633V19.1905L1.625 16.5436V22.8026L6.5 25.4633ZM7.3125 17.6603L11.9971 15.1236L7.3125 12.5731L2.62793 15.1236L7.3125 17.6603ZM14.625 17.6465L20.3125 14.5583L26 17.6465V24.9119L20.3125 28L14.625 24.9119V17.6465ZM19.5 25.5874V21.3826L16.25 19.6179V23.8227L19.5 25.5874ZM24.375 23.8227V19.6179L21.125 21.3826V25.5874L24.375 23.8227ZM20.3125 19.8523L23.3721 18.1841L20.3125 16.5298L17.2529 18.1841L20.3125 19.8523Z" fill="#212121"/>
</svg>
