<svg width="18" height="22" viewBox="0 0 18 22" fill="none" xmlns="http://www.w3.org/2000/svg">
<path d="M8.99976 0L-0.000244141 4V10C-0.000244141 15.55 3.83976 20.74 8.99976 22C14.1598 20.74 17.9998 15.55 17.9998 10V4L8.99976 0ZM8.99976 3.9C9.5931 3.9 10.1731 4.07595 10.6665 4.40559C11.1598 4.73524 11.5443 5.20377 11.7714 5.75195C11.9985 6.30013 12.0579 6.90333 11.9421 7.48527C11.8264 8.06721 11.5406 8.60176 11.1211 9.02132C10.7015 9.44088 10.167 9.7266 9.58503 9.84236C9.00308 9.95811 8.39988 9.8987 7.85171 9.67164C7.30353 9.44458 6.83499 9.06006 6.50535 8.56671C6.1757 8.07336 5.99976 7.49334 5.99976 6.9C5.99976 6.10435 6.31583 5.34129 6.87844 4.77868C7.44104 4.21607 8.20411 3.9 8.99976 3.9ZM8.99976 11.8C10.9998 11.8 14.9998 12.89 14.9998 14.88C14.343 15.8701 13.4514 16.6823 12.4045 17.2442C11.3576 17.806 10.1879 18.1 8.99976 18.1C7.81161 18.1 6.64193 17.806 5.59503 17.2442C4.54812 16.6823 3.65653 15.8701 2.99976 14.88C2.99976 12.89 6.99976 11.8 8.99976 11.8Z" fill="#212121"/>
</svg>
