<svg width="22" height="22" viewBox="0 0 22 22" fill="none" xmlns="http://www.w3.org/2000/svg">
<path d="M15.7958 13.2C15.8838 12.474 15.9498 11.748 15.9498 11C15.9498 10.252 15.8838 9.526 15.7958 8.8H19.5138C19.6898 9.504 19.7998 10.241 19.7998 11C19.7998 11.759 19.6898 12.496 19.5138 13.2M13.8488 19.316C14.5088 18.095 15.0148 16.775 15.3668 15.4H18.6118C17.546 17.2351 15.8553 18.6252 13.8488 19.316ZM13.5738 13.2H8.42576C8.31576 12.474 8.24976 11.748 8.24976 11C8.24976 10.252 8.31576 9.515 8.42576 8.8H13.5738C13.6728 9.515 13.7498 10.252 13.7498 11C13.7498 11.748 13.6728 12.474 13.5738 13.2ZM10.9998 19.756C10.0868 18.436 9.34976 16.973 8.89876 15.4H13.1008C12.6498 16.973 11.9128 18.436 10.9998 19.756ZM6.59976 6.6H3.38776C4.44226 4.75974 6.13188 3.36737 8.13976 2.684C7.47976 3.905 6.98476 5.225 6.59976 6.6ZM3.38776 15.4H6.59976C6.98476 16.775 7.47976 18.095 8.13976 19.316C6.13585 18.6255 4.44847 17.235 3.38776 15.4ZM2.48576 13.2C2.30976 12.496 2.19976 11.759 2.19976 11C2.19976 10.241 2.30976 9.504 2.48576 8.8H6.20376C6.11576 9.526 6.04976 10.252 6.04976 11C6.04976 11.748 6.11576 12.474 6.20376 13.2M10.9998 2.233C11.9128 3.553 12.6498 5.027 13.1008 6.6H8.89876C9.34976 5.027 10.0868 3.553 10.9998 2.233ZM18.6118 6.6H15.3668C15.022 5.23777 14.5122 3.92272 13.8488 2.684C15.8728 3.377 17.5558 4.774 18.6118 6.6ZM10.9998 0C4.91676 0 -0.000244141 4.95 -0.000244141 11C-0.000244141 13.9174 1.15868 16.7153 3.22158 18.7782C4.24303 19.7996 5.45566 20.6099 6.79024 21.1627C8.12482 21.7155 9.55522 22 10.9998 22C13.9171 22 16.715 20.8411 18.7779 18.7782C20.8408 16.7153 21.9998 13.9174 21.9998 11C21.9998 9.55546 21.7152 8.12506 21.1624 6.79048C20.6096 5.4559 19.7994 4.24327 18.7779 3.22183C17.7565 2.20038 16.5439 1.39013 15.2093 0.837325C13.8747 0.284523 12.4443 0 10.9998 0Z" fill="#212121"/>
</svg>
