<svg width="28" height="24" viewBox="0 0 28 24" fill="none" xmlns="http://www.w3.org/2000/svg">
<path d="M4.17383 23C3.55414 23 3.03714 22.7916 2.62282 22.3749C2.2085 21.9582 2.0009 21.4378 2 20.8136V17.0687C2 16.4454 2.20761 15.9255 2.62282 15.5088C3.03804 15.0921 3.55504 14.8833 4.17383 14.8824H17.4697V10.1471C17.4697 9.95494 17.5338 9.79394 17.662 9.66406C17.7903 9.53418 17.9504 9.46969 18.1423 9.47059C18.3342 9.47149 18.4943 9.53598 18.6225 9.66406C18.7507 9.79214 18.8149 9.95314 18.8149 10.1471V14.8824H21.3505C21.9693 14.8824 22.4859 15.0912 22.9002 15.5088C23.3145 15.9264 23.5221 16.4464 23.523 17.0687V20.815C23.523 21.4374 23.3154 21.9573 22.9002 22.3749C22.485 22.7925 21.9684 23.0009 21.3505 23H4.17383ZM4.17383 21.6471H21.3505C21.5918 21.6471 21.79 21.569 21.9451 21.413C22.1003 21.257 22.1778 21.0576 22.1778 20.815V17.0674C22.1778 16.8247 22.1003 16.6254 21.9451 16.4694C21.79 16.3133 21.5918 16.2353 21.3505 16.2353H4.17248C3.93124 16.2353 3.73305 16.3133 3.57791 16.4694C3.42276 16.6254 3.34519 16.8252 3.34519 17.0687V20.815C3.34519 21.0576 3.42276 21.257 3.57791 21.413C3.73305 21.569 3.93169 21.6471 4.17383 21.6471ZM6.03557 19.9829C6.33061 19.9829 6.57678 19.8833 6.77408 19.6839C6.97137 19.4846 7.07002 19.237 7.07002 18.9412C7.07002 18.6453 6.97137 18.3977 6.77408 18.1984C6.57678 17.9991 6.33061 17.8999 6.03557 17.9008C5.74052 17.9017 5.49435 18.0009 5.29706 18.1984C5.09977 18.3959 5.00112 18.6435 5.00112 18.9412C5.00112 19.2388 5.09977 19.4864 5.29706 19.6839C5.49435 19.8815 5.74052 19.9807 6.03557 19.9816M10.7437 19.9816C11.0388 19.9816 11.2849 19.8824 11.4822 19.6839C11.6795 19.4855 11.7782 19.2379 11.7782 18.9412C11.7782 18.6444 11.6795 18.3968 11.4822 18.1984C11.2849 18 11.0388 17.9008 10.7437 17.9008C10.4487 17.9008 10.2025 18 10.0052 18.1984C9.80793 18.3968 9.70928 18.6444 9.70928 18.9412C9.70928 19.2379 9.80793 19.4855 10.0052 19.6839C10.2025 19.8824 10.4487 19.9816 10.7437 19.9816ZM15.4519 19.9816C15.7469 19.9816 15.9931 19.8824 16.1904 19.6839C16.3877 19.4855 16.4863 19.2379 16.4863 18.9412C16.4863 18.6444 16.3877 18.3968 16.1904 18.1984C15.9931 18 15.7469 17.9008 15.4519 17.9008C15.1568 17.9008 14.9107 18 14.7134 18.1984C14.5161 18.3968 14.4174 18.6444 14.4174 18.9412C14.4174 19.2379 14.5161 19.4855 14.7134 19.6839C14.9107 19.8824 15.1568 19.9816 15.4519 19.9816ZM18.1423 6.08824C17.6885 6.08824 17.2746 6.15408 16.9007 6.28577C16.5267 6.41745 16.1783 6.61543 15.8555 6.87971C15.6869 6.98524 15.512 7.03935 15.3308 7.04206C15.1497 7.04477 14.9856 6.97261 14.8385 6.82559C14.6914 6.67857 14.6228 6.51171 14.6327 6.325C14.6425 6.1383 14.7277 5.99083 14.8883 5.88259C15.3932 5.48573 15.9119 5.1953 16.4446 5.0113C16.9755 4.8273 17.5414 4.7353 18.1423 4.7353C18.7476 4.7353 19.3153 4.8273 19.8453 5.0113C20.3744 5.1953 20.8914 5.48573 21.3963 5.88259C21.555 5.99353 21.6402 6.141 21.6519 6.325C21.6635 6.509 21.5949 6.67586 21.4461 6.82559C21.2972 6.97351 21.1313 7.04567 20.9483 7.04206C20.7663 7.03935 20.5905 6.98524 20.421 6.87971C20.1036 6.61543 19.7565 6.41745 19.3798 6.28577C19.0032 6.15408 18.5907 6.08824 18.1423 6.08824ZM18.1423 1.35294C16.9746 1.35294 15.9151 1.55183 14.9636 1.94959C14.013 2.34826 13.1839 2.85606 12.4763 3.473C12.3176 3.59477 12.1481 3.65745 11.9679 3.66106C11.7876 3.66467 11.6262 3.59432 11.4836 3.45C11.3356 3.30118 11.2701 3.13747 11.2872 2.95888C11.3042 2.7803 11.3894 2.62155 11.5428 2.48265C12.4449 1.70877 13.4525 1.10175 14.5654 0.661591C15.6783 0.221434 16.8706 0.000904716 18.1423 2.75548e-06C19.4139 -0.000899205 20.6067 0.21963 21.7205 0.661591C22.8325 1.10175 23.8396 1.70877 24.7418 2.48265C24.8951 2.62155 24.9803 2.7803 24.9974 2.95888C25.0144 3.13747 24.9489 3.30118 24.801 3.45C24.6575 3.59432 24.4961 3.66467 24.3167 3.66106C24.1373 3.65745 23.9678 3.59477 23.8082 3.473C23.1006 2.85606 22.2711 2.34826 21.3196 1.94959C20.3681 1.55092 19.309 1.35204 18.1423 1.35294Z" fill="#212121" fill-opacity="0.6"/>
</svg>
