<svg width="28" height="24" viewBox="0 0 28 24" fill="none" xmlns="http://www.w3.org/2000/svg">
<path d="M4.17358 23C3.5539 23 3.0369 22.7916 2.62258 22.3749C2.20826 21.9582 2.00065 21.4378 1.99976 20.8136V17.0687C1.99976 16.4454 2.20736 15.9255 2.62258 15.5088C3.03779 15.0921 3.5548 14.8833 4.17358 14.8824H17.4694V10.1471C17.4694 9.95494 17.5336 9.79394 17.6618 9.66406C17.79 9.53418 17.9501 9.46969 18.142 9.47059C18.3339 9.47149 18.494 9.53598 18.6223 9.66406C18.7505 9.79214 18.8146 9.95314 18.8146 10.1471V14.8824H21.3503C21.9691 14.8824 22.4856 15.0912 22.9 15.5088C23.3143 15.9264 23.5219 16.4464 23.5228 17.0687V20.815C23.5228 21.4374 23.3152 21.9573 22.9 22.3749C22.4848 22.7925 21.9682 23.0009 21.3503 23H4.17358ZM4.17358 21.6471H21.3503C21.5915 21.6471 21.7897 21.569 21.9449 21.413C22.1 21.257 22.1776 21.0576 22.1776 20.815V17.0674C22.1776 16.8247 22.1 16.6254 21.9449 16.4694C21.7897 16.3133 21.5915 16.2353 21.3503 16.2353H4.17224C3.931 16.2353 3.73281 16.3133 3.57766 16.4694C3.42252 16.6254 3.34495 16.8252 3.34495 17.0687V20.815C3.34495 21.0576 3.42252 21.257 3.57766 21.413C3.73281 21.569 3.93145 21.6471 4.17358 21.6471ZM6.03532 19.9829C6.33037 19.9829 6.57654 19.8833 6.77383 19.6839C6.97113 19.4846 7.06978 19.237 7.06978 18.9412C7.06978 18.6453 6.97113 18.3977 6.77383 18.1984C6.57654 17.9991 6.33037 17.8999 6.03532 17.9008C5.74028 17.9017 5.49411 18.0009 5.29682 18.1984C5.09952 18.3959 5.00087 18.6435 5.00087 18.9412C5.00087 19.2388 5.09952 19.4864 5.29682 19.6839C5.49411 19.8815 5.74028 19.9807 6.03532 19.9816M10.7435 19.9816C11.0385 19.9816 11.2847 19.8824 11.482 19.6839C11.6793 19.4855 11.7779 19.2379 11.7779 18.9412C11.7779 18.6444 11.6793 18.3968 11.482 18.1984C11.2847 18 11.0385 17.9008 10.7435 17.9008C10.4484 17.9008 10.2023 18 10.005 18.1984C9.80768 18.3968 9.70904 18.6444 9.70904 18.9412C9.70904 19.2379 9.80768 19.4855 10.005 19.6839C10.2023 19.8824 10.4484 19.9816 10.7435 19.9816ZM15.4517 19.9816C15.7467 19.9816 15.9929 19.8824 16.1902 19.6839C16.3875 19.4855 16.4861 19.2379 16.4861 18.9412C16.4861 18.6444 16.3875 18.3968 16.1902 18.1984C15.9929 18 15.7467 17.9008 15.4517 17.9008C15.1566 17.9008 14.9104 18 14.7131 18.1984C14.5158 18.3968 14.4172 18.6444 14.4172 18.9412C14.4172 19.2379 14.5158 19.4855 14.7131 19.6839C14.9104 19.8824 15.1566 19.9816 15.4517 19.9816ZM18.142 6.08824C17.6883 6.08824 17.2744 6.15408 16.9004 6.28577C16.5265 6.41745 16.1781 6.61543 15.8552 6.87971C15.6866 6.98524 15.5117 7.03935 15.3306 7.04206C15.1494 7.04477 14.9853 6.97261 14.8382 6.82559C14.6912 6.67857 14.6226 6.51171 14.6324 6.325C14.6423 6.1383 14.7275 5.99083 14.888 5.88259C15.3929 5.48573 15.9117 5.1953 16.4444 5.0113C16.9753 4.8273 17.5412 4.7353 18.142 4.7353C18.7474 4.7353 19.315 4.8273 19.845 5.0113C20.3741 5.1953 20.8911 5.48573 21.396 5.88259C21.5548 5.99353 21.64 6.141 21.6516 6.325C21.6633 6.509 21.5947 6.67586 21.4458 6.82559C21.2969 6.97351 21.131 7.04567 20.9481 7.04206C20.766 7.03935 20.5903 6.98524 20.4208 6.87971C20.1033 6.61543 19.7563 6.41745 19.3796 6.28577C19.003 6.15408 18.5904 6.08824 18.142 6.08824ZM18.142 1.35294C16.9744 1.35294 15.9148 1.55183 14.9633 1.94959C14.0127 2.34826 13.1837 2.85606 12.4761 3.473C12.3174 3.59477 12.1479 3.65745 11.9676 3.66106C11.7874 3.66467 11.6259 3.59432 11.4833 3.45C11.3354 3.30118 11.2699 3.13747 11.2869 2.95888C11.304 2.7803 11.3892 2.62155 11.5425 2.48265C12.4447 1.70877 13.4522 1.10175 14.5652 0.661591C15.6781 0.221434 16.8704 0.000904716 18.142 2.75548e-06C19.4137 -0.000899205 20.6064 0.21963 21.7202 0.661591C22.8323 1.10175 23.8394 1.70877 24.7415 2.48265C24.8949 2.62155 24.9801 2.7803 24.9971 2.95888C25.0142 3.13747 24.9487 3.30118 24.8007 3.45C24.6572 3.59432 24.4958 3.66467 24.3164 3.66106C24.1371 3.65745 23.9676 3.59477 23.808 3.473C23.1004 2.85606 22.2709 2.34826 21.3194 1.94959C20.3679 1.55092 19.3088 1.35204 18.142 1.35294Z" fill="#212121"/>
</svg>
