<svg width="13" height="13" viewBox="0 0 13 13" fill="none" xmlns="http://www.w3.org/2000/svg">
<path fill-rule="evenodd" clip-rule="evenodd" d="M6.49976 13C10.0897 13 12.9998 10.0899 12.9998 6.5C12.9998 2.91005 10.0897 0 6.49976 0C2.90981 0 -0.000244141 2.91005 -0.000244141 6.5C-0.000244141 10.0899 2.90981 13 6.49976 13ZM8.79816 4.2016C8.92021 4.07972 9.08568 4.01132 9.25817 4.01144C9.43065 4.01156 9.59603 4.0802 9.71791 4.20225C9.83979 4.3243 9.90819 4.48977 9.90807 4.66226C9.90795 4.83475 9.83931 5.00012 9.71726 5.122L6.04281 8.79645L6.04021 8.79905C5.97998 8.85962 5.90838 8.90769 5.82951 8.94049C5.75064 8.97329 5.66607 8.99017 5.58066 8.99017C5.49524 8.99017 5.41067 8.97329 5.3318 8.94049C5.25293 8.90769 5.18133 8.85962 5.12111 8.79905L5.11851 8.79645L3.28226 6.9602C3.22017 6.90024 3.17066 6.82852 3.13659 6.74921C3.10252 6.66991 3.08459 6.58462 3.08384 6.49831C3.08309 6.412 3.09954 6.32641 3.13222 6.24653C3.1649 6.16665 3.21317 6.09407 3.2742 6.03304C3.33523 5.97201 3.4078 5.92375 3.48769 5.89107C3.56757 5.85838 3.65316 5.84194 3.73947 5.84269C3.82577 5.84344 3.91107 5.86137 3.99037 5.89543C4.06967 5.9295 4.1414 5.97902 4.20136 6.0411L5.58066 7.41975L8.79816 4.2016Z" fill="white"/>
</svg>
