<svg width="28" height="24" viewBox="0 0 28 24" fill="none" xmlns="http://www.w3.org/2000/svg">
<path d="M18.4874 6.70852C18.4874 7.00218 18.4292 7.29296 18.3162 7.56427C18.2033 7.83557 18.0377 8.08209 17.8289 8.28973C17.6201 8.49738 17.3723 8.6621 17.0995 8.77447C16.8267 8.88685 16.5344 8.94469 16.2391 8.94469C15.9439 8.94469 15.6515 8.88685 15.3787 8.77447C15.106 8.6621 14.8581 8.49738 14.6493 8.28973C14.4406 8.08209 14.275 7.83557 14.162 7.56427C14.049 7.29296 13.9908 7.00218 13.9908 6.70852C13.9908 6.11545 14.2277 5.54667 14.6493 5.12731C15.071 4.70794 15.6428 4.47235 16.2391 4.47235C16.8354 4.47235 17.4072 4.70794 17.8289 5.12731C18.2505 5.54667 18.4874 6.11545 18.4874 6.70852ZM16.9885 6.70852C16.9885 6.51083 16.9096 6.32124 16.769 6.18145C16.6285 6.04166 16.4379 5.96313 16.2391 5.96313C16.0403 5.96313 15.8497 6.04166 15.7092 6.18145C15.5686 6.32124 15.4897 6.51083 15.4897 6.70852C15.4897 6.90621 15.5686 7.0958 15.7092 7.23559C15.8497 7.37538 16.0403 7.45391 16.2391 7.45391C16.4379 7.45391 16.6285 7.37538 16.769 7.23559C16.9096 7.0958 16.9885 6.90621 16.9885 6.70852ZM2 4.47235C2 3.28621 2.47374 2.14865 3.31701 1.30992C4.16028 0.471192 5.304 0 6.49656 0H18.4874C19.6799 0 20.8237 0.471192 21.6669 1.30992C22.5102 2.14865 22.9839 3.28621 22.9839 4.47235V8.94917C22.4728 8.97302 21.9647 9.08632 21.4851 9.29056V4.47235C21.4851 3.68159 21.1693 2.92321 20.6071 2.36406C20.0449 1.80491 19.2824 1.49078 18.4874 1.49078H6.49656C5.70152 1.49078 4.93904 1.80491 4.37686 2.36406C3.81468 2.92321 3.49885 3.68159 3.49885 4.47235V17.63C3.4991 17.6886 3.5167 17.7458 3.54947 17.7946C3.58224 17.8433 3.62872 17.8813 3.68309 17.9039C3.73747 17.9265 3.79733 17.9326 3.8552 17.9216C3.91307 17.9105 3.96638 17.8827 4.00846 17.8417L5.21804 16.655L5.21504 16.6505L6.78584 15.115L7.0946 14.8139L10.9167 11.0795C11.3371 10.6689 11.9028 10.4388 12.492 10.4388C13.0812 10.4388 13.6469 10.6689 14.0673 11.0795L16.6828 13.6347L15.6231 14.6902L13.0166 12.1424C12.8765 12.0058 12.6881 11.9293 12.492 11.9293C12.2958 11.9293 12.1075 12.0058 11.9674 12.1424L7.83653 16.178L5.06216 18.9031C3.92603 20.0182 2 19.2162 2 17.63V4.47235ZM2.59954 20.9231C3.15262 21.1974 3.84359 21.4225 4.42365 21.2958C4.79986 21.2123 5.28848 21.0081 5.83706 20.7785C7.16355 20.2225 8.83927 19.5218 10.1268 20.0376C11.0816 20.4192 11.0021 21.5001 10.7338 22.0203C10.6814 22.1187 10.7218 22.2589 10.8312 22.2842C11.3794 22.395 11.9391 22.4391 12.498 22.4154C12.5045 22.3451 12.516 22.2754 12.5324 22.2067L13.0945 19.9735C13.2397 19.398 13.5391 18.8725 13.9608 18.4529L21.2003 11.2524C21.4599 10.9903 21.7691 10.7819 22.11 10.6392C22.4509 10.4965 22.8169 10.4223 23.1868 10.421C23.5567 10.4196 23.9232 10.4911 24.2652 10.6313C24.6072 10.7715 24.9179 10.9776 25.1794 11.2378C25.4409 11.498 25.6481 11.8072 25.7889 12.1474C25.9297 12.4876 26.0015 12.8521 26 13.22C25.9985 13.5879 25.9238 13.9519 25.7802 14.291C25.6366 14.63 25.4269 14.9375 25.1633 15.1955L17.9238 22.3945C17.5019 22.814 16.9736 23.1118 16.395 23.2562L14.5634 23.7109C12.8832 24.1999 10.3756 24.0418 9.59769 23.4381C8.9247 22.9163 8.89772 22.1158 9.12405 21.5835C9.17501 21.4643 9.08508 21.3107 8.95768 21.3301C8.21574 21.4345 7.60871 21.7028 7.00917 21.9667C6.13234 22.3543 5.27649 22.7314 4.04743 22.5794C2.98175 22.4482 2.3882 21.8951 2.06145 21.3495C1.87859 21.0454 2.28029 20.7651 2.59954 20.9231Z" fill="#212121" fill-opacity="0.6"/>
</svg>
