<svg width="52" height="44" viewBox="0 0 52 44" fill="none" xmlns="http://www.w3.org/2000/svg">
<path d="M27.625 33V39.4167H37.375C37.806 39.4167 38.2193 39.5857 38.524 39.8865C38.8288 40.1873 39 40.5954 39 41.0208C39 41.4463 38.8288 41.8543 38.524 42.1551C38.2193 42.456 37.806 42.625 37.375 42.625H14.625C14.194 42.625 13.7807 42.456 13.476 42.1551C13.1712 41.8543 13 41.4463 13 41.0208C13 40.5954 13.1712 40.1873 13.476 39.8865C13.7807 39.5857 14.194 39.4167 14.625 39.4167H24.375V33H9.75C8.02609 33 6.37279 32.3239 5.15381 31.1206C3.93482 29.9172 3.25 28.2851 3.25 26.5833V7.33332C3.25 5.63152 3.93482 3.99941 5.15381 2.79605C6.37279 1.5927 8.02609 0.916656 9.75 0.916656H42.25C43.9739 0.916656 45.6272 1.5927 46.8462 2.79605C48.0652 3.99941 48.75 5.63152 48.75 7.33332V26.5833C48.75 28.2851 48.0652 29.9172 46.8462 31.1206C45.6272 32.3239 43.9739 33 42.25 33H27.625ZM9.75 4.12499C8.88805 4.12499 8.0614 4.46301 7.4519 5.06469C6.84241 5.66637 6.5 6.48242 6.5 7.33332V26.5833C6.5 27.4342 6.84241 28.2503 7.4519 28.852C8.0614 29.4536 8.88805 29.7917 9.75 29.7917H42.25C43.112 29.7917 43.9386 29.4536 44.5481 28.852C45.1576 28.2503 45.5 27.4342 45.5 26.5833V7.33332C45.5 6.48242 45.1576 5.66637 44.5481 5.06469C43.9386 4.46301 43.112 4.12499 42.25 4.12499H9.75Z" fill="white"/>
</svg>
