<svg width="22" height="22" viewBox="0 0 22 22" fill="none" xmlns="http://www.w3.org/2000/svg">
<path d="M5.9995 5V4C5.9995 2.586 5.9995 1.879 6.4395 1.44C6.8775 1 7.5845 1 8.9995 1H12.9995C14.4135 1 15.1205 1 15.5595 1.44C15.9995 1.878 15.9995 2.585 15.9995 4V5C15.9995 6.414 15.9995 7.121 15.5595 7.56C15.1215 8 14.4145 8 12.9995 8H11.9995L8.9995 10V8C7.5855 8 6.8785 8 6.4395 7.56C5.9995 7.122 5.9995 6.415 5.9995 5ZM2.5895 17.74C1.9605 18.162 0.312504 19.022 1.3165 20.098C1.8065 20.624 2.3535 21 3.0395 21H6.9595C7.6455 21 8.1925 20.624 8.6825 20.098C9.6865 19.022 8.0385 18.162 7.4095 17.741C6.69852 17.2582 5.85892 17.0001 4.9995 17.0001C4.14009 17.0001 3.30049 17.2572 2.5895 17.74ZM14.5895 17.74C13.9605 18.162 12.3125 19.022 13.3165 20.098C13.8065 20.624 14.3535 21 15.0395 21H18.9595C19.6455 21 20.1925 20.624 20.6825 20.098C21.6865 19.022 20.0385 18.162 19.4095 17.741C18.6985 17.2582 17.8589 17.0001 16.9995 17.0001C16.1401 17.0001 15.3005 17.2572 14.5895 17.74ZM6.9995 12.5C6.9995 13.0304 6.78879 13.5391 6.41372 13.9142C6.03864 14.2893 5.52994 14.5 4.9995 14.5C4.46907 14.5 3.96036 14.2893 3.58529 13.9142C3.21022 13.5391 2.9995 13.0304 2.9995 12.5C2.9995 11.9696 3.21022 11.4609 3.58529 11.0858C3.96036 10.7107 4.46907 10.5 4.9995 10.5C5.52994 10.5 6.03864 10.7107 6.41372 11.0858C6.78879 11.4609 6.9995 11.9696 6.9995 12.5ZM18.9995 12.5C18.9995 13.0304 18.7888 13.5391 18.4137 13.9142C18.0386 14.2893 17.5299 14.5 16.9995 14.5C16.4691 14.5 15.9604 14.2893 15.5853 13.9142C15.2102 13.5391 14.9995 13.0304 14.9995 12.5C14.9995 11.9696 15.2102 11.4609 15.5853 11.0858C15.9604 10.7107 16.4691 10.5 16.9995 10.5C17.5299 10.5 18.0386 10.7107 18.4137 11.0858C18.7888 11.4609 18.9995 11.9696 18.9995 12.5Z" stroke="#212121" stroke-width="1.5" stroke-linecap="round" stroke-linejoin="round"/>
</svg>
