<svg width="28" height="26" viewBox="0 0 28 26" fill="none" xmlns="http://www.w3.org/2000/svg">
<path d="M14 0L22.9091 5.26759V12.2339C24.22 12.8168 25.3616 13.5469 26.2309 14.4098C27.2847 15.4545 28 16.7637 28 18.2611C28 20.793 26.0069 22.7394 23.5684 23.975C21.0535 25.2493 17.6693 26 14 26C10.3307 26 6.94527 25.2493 4.43164 23.975C1.99309 22.7394 0 20.7943 0 18.2611C0 16.7637 0.715273 15.4558 1.76909 14.4098C2.63836 13.5456 3.78 12.8168 5.09091 12.2339V5.26759L14 0ZM5.09091 15.114C4.53019 15.4248 4.01167 15.8081 3.54836 16.2542C2.83055 16.9662 2.54545 17.6485 2.54545 18.2611C2.54545 19.2904 3.402 20.5699 5.56945 21.6675C7.66182 22.7277 10.64 23.4204 14 23.4204C17.36 23.4204 20.3382 22.7277 22.4305 21.6675C24.598 20.5699 25.4545 19.2904 25.4545 18.2611C25.4545 17.6485 25.1695 16.9662 24.4516 16.2529C23.9882 15.8072 23.4697 15.4244 22.9091 15.114V15.7783L14 21.0458L5.09091 15.7783V15.114ZM20.3636 14.2975V8.41343L15.2727 11.2807V17.3054L20.3636 14.2975ZM12.7273 17.3067V11.2833L7.63636 8.41214V14.2937L12.7273 17.3067ZM8.75127 6.0892L14 9.04673L19.2487 6.0892L14 2.9872L8.75127 6.0892Z" fill="#212121"/>
</svg>
