<svg width="24" height="24" viewBox="0 0 24 24" fill="none" xmlns="http://www.w3.org/2000/svg">
<path d="M20.8398 2.17999L16.9098 2.95999L19.6498 6.49999L21.6198 6.09999L20.8398 2.17999ZM13.9698 3.53999L11.9998 3.92999L14.7498 7.45999L16.7098 7.06999L13.9698 3.53999ZM9.06981 4.49999L7.09981 4.90999L9.84981 8.43999L11.8098 8.04999L9.06981 4.49999ZM4.15981 5.49999L3.17981 5.68999C2.66019 5.79381 2.20301 6.09959 1.90865 6.5402C1.61429 6.9808 1.50681 7.52021 1.60981 8.03999L1.99981 9.99999L6.89981 9.02999L4.15981 5.49999ZM1.99981 9.99999V20C1.99981 20.5304 2.21052 21.0391 2.5856 21.4142C2.96067 21.7893 3.46938 22 3.99981 22H19.9998C21.1098 22 21.9998 21.11 21.9998 20V9.99999H1.99981Z" fill="#212121"/>
</svg>
