<svg width="32" height="16" viewBox="0 0 32 16" fill="none" xmlns="http://www.w3.org/2000/svg">
<path d="M8 9.6H1.6C0.72 9.6 0 8.88 0 8C0 7.12 0.72 6.4 1.6 6.4H8C8.88 6.4 9.6 7.12 9.6 8C9.6 8.88 8.88 9.6 8 9.6ZM6.4 1.6C6.4 0.72 5.68 0 4.8 0H3.2C2.32 0 1.6 0.72 1.6 1.6C1.6 2.48 2.32 3.2 3.2 3.2H4.8C5.68 3.2 6.4 2.48 6.4 1.6ZM32 8C32 12.416 28.416 16 24 16H3.2C2.32 16 1.6 15.28 1.6 14.4C1.6 13.52 2.32 12.8 3.2 12.8H17.6C16.928 11.872 16.4 10.784 16.16 9.6H12.8C11.92 9.6 11.2 8.88 11.2 8C11.2 7.12 11.92 6.4 12.8 6.4H16.16C16.4 5.216 16.928 4.128 17.6 3.2H9.6C8.72 3.2 8 2.48 8 1.6C8 0.72 8.72 0 9.6 0H24C28.416 0 32 3.584 32 8ZM28.8 8C28.8 5.36 26.64 3.2 24 3.2C21.36 3.2 19.2 5.36 19.2 8C19.2 10.64 21.36 12.8 24 12.8C26.64 12.8 28.8 10.64 28.8 8Z" fill="#212121"/>
</svg>
