<svg width="28" height="28" viewBox="0 0 28 28" fill="none" xmlns="http://www.w3.org/2000/svg">
<path d="M6.59476 2.08401C6.71681 2.14724 6.81915 2.2428 6.89057 2.36026C6.962 2.47771 6.99977 2.61254 6.99976 2.75001C6.99976 3.92001 7.40276 4.59801 7.86676 5.26901C7.91076 5.33301 7.95676 5.39834 8.00476 5.46501C8.44776 6.09301 8.99976 6.87301 8.99976 8.00001C8.99976 8.45963 8.90923 8.91476 8.73333 9.3394C8.55744 9.76404 8.29963 10.1499 7.97463 10.4749C7.64962 10.7999 7.26379 11.0577 6.83915 11.2336C6.41451 11.4095 5.95938 11.5 5.49976 11.5C5.04013 11.5 4.585 11.4095 4.16036 11.2336C3.73572 11.0577 3.34989 10.7999 3.02488 10.4749C2.69988 10.1499 2.44207 9.76404 2.26618 9.3394C2.09029 8.91476 1.99976 8.45963 1.99976 8.00001C1.99976 7.17701 2.08376 6.28001 2.64876 5.28001C3.20076 4.30301 4.17476 3.29401 5.81876 2.13701C5.9309 2.05807 6.06253 2.01139 6.19935 2.00205C6.33616 1.9927 6.47292 2.02105 6.59476 2.08401ZM9.22176 5.47401C10.0916 4.90644 11.0938 4.57438 12.1305 4.51033C13.1671 4.44627 14.2026 4.65241 15.1357 5.10857C16.0688 5.56473 16.8675 6.25529 17.4537 7.1127C18.0398 7.9701 18.3934 8.96498 18.4798 10H15.7508C14.7562 10 13.8024 10.3951 13.0991 11.0984C12.3958 11.8016 12.0008 12.7554 12.0008 13.75V16.48C11.3043 16.4219 10.6234 16.2425 9.98876 15.95C9.97276 16.439 9.93876 16.973 9.88876 17.533C10.5674 17.7841 11.2787 17.9357 12.0008 17.983V20.25C12.0008 21.2446 12.3958 22.1984 13.0991 22.9017C13.8024 23.6049 14.7562 24 15.7508 24H22.2508C23.2453 24 24.1991 23.6049 24.9024 22.9017C25.6057 22.1984 26.0008 21.2446 26.0008 20.25V13.75C26.0008 12.7554 25.6057 11.8016 24.9024 11.0984C24.1991 10.3951 23.2453 10 22.2508 10H19.9848C19.8976 8.6923 19.4692 7.43026 18.7424 6.33966C18.0156 5.24905 17.0157 4.36794 15.8423 3.78412C14.6689 3.20031 13.363 2.93417 12.0547 3.01223C10.7464 3.09028 9.48141 3.50981 8.38576 4.22901C8.47576 4.38301 8.57776 4.537 8.69076 4.70001C8.72876 4.75667 8.77209 4.81801 8.82076 4.88401C8.93876 5.05 9.07976 5.24601 9.22176 5.47401ZM22.2518 11.5C22.8485 11.5 23.4208 11.7371 23.8427 12.159C24.2647 12.581 24.5018 13.1533 24.5018 13.75V20.25C24.5018 20.8467 24.2647 21.419 23.8427 21.841C23.4208 22.263 22.8485 22.5 22.2518 22.5H15.7518C15.155 22.5 14.5827 22.263 14.1608 21.841C13.7388 21.419 13.5018 20.8467 13.5018 20.25V17.934C15.1307 17.7141 16.6424 16.9655 17.8046 15.8032C18.9668 14.6408 19.7151 13.129 19.9348 11.5H22.2518ZM13.5018 16.417V13.75C13.5018 13.1533 13.7388 12.581 14.1608 12.159C14.5827 11.7371 15.155 11.5 15.7518 11.5H18.4178C18.2095 12.7284 17.6244 13.8616 16.7434 14.7426C15.8624 15.6236 14.7302 16.2088 13.5018 16.417ZM1.99976 15.287C1.99976 14.284 2.07976 13.039 2.51576 12.013C3.34876 12.633 4.38176 13 5.49976 13C6.5758 13.0016 7.62341 12.6546 8.48576 12.011C8.92076 13.038 8.99976 14.285 8.99976 15.287C8.99976 16.95 8.73576 19.497 8.25176 21.637C8.01176 22.705 7.70576 23.716 7.32876 24.477C7.14176 24.857 6.91676 25.214 6.64176 25.487C6.36476 25.761 5.98176 26 5.50176 26C5.02176 26 4.63976 25.761 4.36276 25.486C4.08776 25.214 3.86276 24.857 3.67476 24.478C3.29776 23.716 2.99176 22.705 2.74976 21.638C2.26476 19.497 1.99976 16.95 1.99976 15.288" fill="#212121"/>
</svg>
