<svg width="24" height="20" viewBox="0 0 24 20" fill="none" xmlns="http://www.w3.org/2000/svg">
<path d="M22.6783 8.8H12.8212V6.4H13.6426C14.0783 6.4 14.4962 6.23143 14.8043 5.93137C15.1124 5.63131 15.2855 5.22435 15.2855 4.8V1.6C15.2855 1.17565 15.1124 0.768687 14.8043 0.468629C14.4962 0.168571 14.0783 0 13.6426 0H10.3569C9.92119 0 9.50332 0.168571 9.19522 0.468629C8.88713 0.768687 8.71404 1.17565 8.71404 1.6V4.8C8.71404 5.22435 8.88713 5.63131 9.19522 5.93137C9.50332 6.23143 9.92119 6.4 10.3569 6.4H11.1783V8.8H1.32118C1.10333 8.8 0.894394 8.88429 0.740347 9.03431C0.586299 9.18434 0.499756 9.38783 0.499756 9.6C0.499756 9.81217 0.586299 10.0157 0.740347 10.1657C0.894394 10.3157 1.10333 10.4 1.32118 10.4H4.6069V13.6H3.78547C3.34976 13.6 2.93189 13.7686 2.62379 14.0686C2.3157 14.3687 2.14261 14.7757 2.14261 15.2V18.4C2.14261 18.8243 2.3157 19.2313 2.62379 19.5314C2.93189 19.8314 3.34976 20 3.78547 20H7.07118C7.5069 20 7.92476 19.8314 8.23286 19.5314C8.54096 19.2313 8.71404 18.8243 8.71404 18.4V15.2C8.71404 14.7757 8.54096 14.3687 8.23286 14.0686C7.92476 13.7686 7.5069 13.6 7.07118 13.6H6.24976V10.4H17.7498V13.6H16.9283C16.4926 13.6 16.0747 13.7686 15.7667 14.0686C15.4586 14.3687 15.2855 14.7757 15.2855 15.2V18.4C15.2855 18.8243 15.4586 19.2313 15.7667 19.5314C16.0747 19.8314 16.4926 20 16.9283 20H20.214C20.6498 20 21.0676 19.8314 21.3757 19.5314C21.6838 19.2313 21.8569 18.8243 21.8569 18.4V15.2C21.8569 14.7757 21.6838 14.3687 21.3757 14.0686C21.0676 13.7686 20.6498 13.6 20.214 13.6H19.3926V10.4H22.6783C22.8962 10.4 23.1051 10.3157 23.2592 10.1657C23.4132 10.0157 23.4998 9.81217 23.4998 9.6C23.4998 9.38783 23.4132 9.18434 23.2592 9.03431C23.1051 8.88429 22.8962 8.8 22.6783 8.8ZM10.3569 1.6H13.6426V4.8H10.3569V1.6ZM7.07118 18.4H3.78547V15.2H7.07118V18.4ZM20.214 18.4H16.9283V15.2H20.214V18.4Z" fill="#212121"/>
</svg>
