<svg width="22" height="22" viewBox="0 0 22 22" fill="none" xmlns="http://www.w3.org/2000/svg">
<path d="M9.04292 6.72496C9.04289 5.71343 9.28949 4.71714 9.76139 3.8223C10.2333 2.92747 10.9163 2.16105 11.7512 1.58939C12.5861 1.01773 13.5479 0.658048 14.5532 0.541476C15.5585 0.424903 16.5771 0.554952 17.5208 0.920366C17.6413 0.967208 17.7483 1.04334 17.8321 1.14189C17.9158 1.24044 17.9737 1.35829 18.0004 1.48479C18.0272 1.6113 18.0219 1.74247 17.9852 1.86645C17.9485 1.99043 17.8815 2.10331 17.7901 2.19489L14.8147 5.16877L16.8279 7.18093L19.8018 4.2086C19.8933 4.11693 20.0062 4.04954 20.1304 4.01253C20.2545 3.97551 20.3859 3.97005 20.5127 3.99663C20.6395 4.02321 20.7577 4.081 20.8565 4.16475C20.9553 4.2485 21.0316 4.35558 21.0785 4.47626C21.4976 5.55649 21.6067 6.73218 21.3936 7.87102C21.1805 9.00987 20.6536 10.0667 19.8723 10.9225C19.0909 11.7783 18.0861 12.3992 16.9709 12.7153C15.8557 13.0314 14.6743 13.0301 13.5598 12.7116L5.76699 20.6062C5.19067 21.1762 4.41339 21.4972 3.60258 21.5C2.79177 21.5028 2.01231 21.1871 1.43207 20.6211C0.851841 20.055 0.51727 19.2838 0.500424 18.4736C0.483578 17.6634 0.785804 16.879 1.34201 16.2893L9.20485 8.14421C9.09656 7.6789 9.04223 7.20269 9.04292 6.72496ZM15.2709 2.05639C14.537 2.05611 13.8133 2.22871 13.1585 2.56018C12.5038 2.89166 11.9364 3.37269 11.5024 3.96426C11.0683 4.55584 10.7799 5.24131 10.6604 5.9651C10.541 6.6889 10.5939 7.43065 10.8148 8.1302C10.857 8.2638 10.8624 8.40634 10.8304 8.54274C10.7983 8.67915 10.73 8.80437 10.6326 8.90519L2.46149 17.3693C2.19328 17.6633 2.0498 18.0499 2.06133 18.4476C2.07285 18.8453 2.23847 19.223 2.52326 19.5009C2.80805 19.7789 3.18973 19.9355 3.58778 19.9376C3.98584 19.9397 4.36915 19.7871 4.65686 19.5122L12.7922 11.2753C12.898 11.1684 13.0326 11.0945 13.1796 11.0624C13.3266 11.0304 13.4797 11.0416 13.6205 11.0947C14.3621 11.3745 15.1628 11.461 15.9471 11.3461C16.7313 11.2312 17.4735 10.9187 18.1036 10.438C18.7337 9.95735 19.2311 9.32431 19.5489 8.5985C19.8667 7.8727 19.9944 7.078 19.9201 6.28923L17.3775 8.83205C17.2315 8.97792 17.0336 9.05986 16.8271 9.05986C16.6207 9.05986 16.4227 8.97792 16.2767 8.83205L13.1627 5.71966C13.0168 5.57375 12.9348 5.37587 12.9348 5.16955C12.9348 4.96323 13.0168 4.76535 13.1627 4.61943L15.7069 2.07662C15.5619 2.06309 15.4165 2.05634 15.2709 2.05639Z" fill="#212121"/>
</svg>
