<svg width="26" height="24" viewBox="0 0 26 24" fill="none" xmlns="http://www.w3.org/2000/svg">
<path d="M13.8748 18V21.5H19.1248C19.3568 21.5 19.5794 21.5922 19.7435 21.7563C19.9076 21.9204 19.9998 22.1429 19.9998 22.375C19.9998 22.6071 19.9076 22.8296 19.7435 22.9937C19.5794 23.1578 19.3568 23.25 19.1248 23.25H6.87476C6.64269 23.25 6.42013 23.1578 6.25604 22.9937C6.09194 22.8296 5.99976 22.6071 5.99976 22.375C5.99976 22.1429 6.09194 21.9204 6.25604 21.7563C6.42013 21.5922 6.64269 21.5 6.87476 21.5H12.1248V18H4.24976C3.3215 18 2.43126 17.6313 1.77488 16.9749C1.1185 16.3185 0.749756 15.4283 0.749756 14.5V4C0.749756 3.07174 1.1185 2.1815 1.77488 1.52513C2.43126 0.868749 3.3215 0.5 4.24976 0.5H21.7498C22.678 0.5 23.5683 0.868749 24.2246 1.52513C24.881 2.1815 25.2498 3.07174 25.2498 4V14.5C25.2498 15.4283 24.881 16.3185 24.2246 16.9749C23.5683 17.6313 22.678 18 21.7498 18H13.8748ZM4.24976 2.25C3.78563 2.25 3.34051 2.43437 3.01232 2.76256C2.68413 3.09075 2.49976 3.53587 2.49976 4V14.5C2.49976 14.9641 2.68413 15.4092 3.01232 15.7374C3.34051 16.0656 3.78563 16.25 4.24976 16.25H21.7498C22.2139 16.25 22.659 16.0656 22.9872 15.7374C23.3154 15.4092 23.4998 14.9641 23.4998 14.5V4C23.4998 3.53587 23.3154 3.09075 22.9872 2.76256C22.659 2.43437 22.2139 2.25 21.7498 2.25H4.24976Z" fill="#212121" fill-opacity="0.6"/>
</svg>
