<svg width="26" height="24" viewBox="0 0 26 24" fill="none" xmlns="http://www.w3.org/2000/svg">
<path d="M13.875 18V21.5H19.125C19.3571 21.5 19.5796 21.5922 19.7437 21.7563C19.9078 21.9204 20 22.1429 20 22.375C20 22.6071 19.9078 22.8296 19.7437 22.9937C19.5796 23.1578 19.3571 23.25 19.125 23.25H6.875C6.64294 23.25 6.42038 23.1578 6.25628 22.9937C6.09219 22.8296 6 22.6071 6 22.375C6 22.1429 6.09219 21.9204 6.25628 21.7563C6.42038 21.5922 6.64294 21.5 6.875 21.5H12.125V18H4.25C3.32174 18 2.4315 17.6313 1.77513 16.9749C1.11875 16.3185 0.75 15.4283 0.75 14.5V4C0.75 3.07174 1.11875 2.1815 1.77513 1.52513C2.4315 0.868749 3.32174 0.5 4.25 0.5H21.75C22.6783 0.5 23.5685 0.868749 24.2249 1.52513C24.8813 2.1815 25.25 3.07174 25.25 4V14.5C25.25 15.4283 24.8813 16.3185 24.2249 16.9749C23.5685 17.6313 22.6783 18 21.75 18H13.875ZM4.25 2.25C3.78587 2.25 3.34075 2.43437 3.01256 2.76256C2.68437 3.09075 2.5 3.53587 2.5 4V14.5C2.5 14.9641 2.68437 15.4092 3.01256 15.7374C3.34075 16.0656 3.78587 16.25 4.25 16.25H21.75C22.2141 16.25 22.6592 16.0656 22.9874 15.7374C23.3156 15.4092 23.5 14.9641 23.5 14.5V4C23.5 3.53587 23.3156 3.09075 22.9874 2.76256C22.6592 2.43437 22.2141 2.25 21.75 2.25H4.25Z" fill="#212121"/>
</svg>
